<svg width="60" height="60" viewBox="0 0 60 60" fill="none" xmlns="http://www.w3.org/2000/svg">
<g clip-path="url(#clip0_29_5715)">
<path fill-rule="evenodd" clip-rule="evenodd" d="M6.17136 1.88572C7.37579 0.679782 9.00983 0.00150386 10.7142 3.41783e-06H36.4285C36.7101 -0.000499498 36.989 0.0545035 37.2493 0.161868C37.5097 0.269232 37.7463 0.426853 37.9456 0.625718L55.0885 17.7686C55.2874 17.9679 55.445 18.2045 55.5523 18.4649C55.6597 18.7252 55.7147 19.0041 55.7142 19.2857V53.5714C55.7142 55.2764 55.0369 56.9115 53.8313 58.1171C52.6257 59.3227 50.9906 60 49.2856 60H10.7142C9.00925 60 7.37412 59.3227 6.16853 58.1171C4.96294 56.9115 4.28564 55.2764 4.28564 53.5714V6.42857C4.28564 4.72286 4.96279 3.08572 6.17136 1.88572ZM21.2356 16.9286C21.812 16.9286 22.3826 16.8151 22.9151 16.5945C23.4475 16.374 23.9313 16.0507 24.3388 15.6432C24.7463 15.2357 25.0696 14.7519 25.2902 14.2194C25.5107 13.687 25.6242 13.1163 25.6242 12.54C25.6242 11.9637 25.5107 11.393 25.2902 10.8606C25.0696 10.3281 24.7463 9.84433 24.3388 9.43681C23.9313 9.0293 23.4475 8.70604 22.9151 8.48549C22.3826 8.26495 21.812 8.15143 21.2356 8.15143C20.0717 8.15143 18.9555 8.6138 18.1325 9.43681C17.3094 10.2598 16.8471 11.3761 16.8471 12.54C16.8471 13.7039 17.3094 14.8202 18.1325 15.6432C18.9555 16.4662 20.0717 16.9286 21.2356 16.9286ZM12.3256 36.4286C12.3256 34.95 13.5214 33.75 14.9999 33.75H44.9999C45.6842 33.7876 46.3281 34.0857 46.7996 34.583C47.2711 35.0803 47.5345 35.7392 47.5355 36.4245C47.5366 37.1098 47.2754 37.7696 46.8055 38.2684C46.3356 38.7672 45.6927 39.0673 45.0085 39.1071H15.0085C14.2977 39.1071 13.616 38.8251 13.1129 38.3229C12.6099 37.8207 12.3268 37.1394 12.3256 36.4286ZM12.3256 49.2857C12.3256 47.8071 13.5214 46.6071 14.9999 46.6071H32.1428C32.8271 46.6448 33.471 46.9428 33.9425 47.4401C34.414 47.9375 34.6773 48.5964 34.6784 49.2817C34.6795 49.967 34.4183 50.6267 33.9484 51.1256C33.4785 51.6244 32.8355 51.9245 32.1514 51.9643H15.0085C14.2977 51.9643 13.616 51.6822 13.1129 51.18C12.6099 50.6778 12.3268 49.9965 12.3256 49.2857ZM21.2399 19.86C18.2399 19.86 15.5014 20.9871 13.4314 22.8429C12.2014 23.9443 13.1614 25.7143 14.8114 25.7143H27.6599C29.3142 25.7143 30.2742 23.9443 29.0442 22.8429C26.8996 20.9175 24.122 19.8548 21.2399 19.86Z" fill="#004745"/>
<rect x="12" y="33" width="36" height="7" rx="3.5" fill="#FFC727"/>
<rect x="12" y="19" width="36" height="7" rx="3.5" fill="#FFC727"/>
<rect x="13" y="3" width="15" height="15" rx="7.5" fill="#004745"/>
<rect x="12" y="46" width="24" height="6" rx="3" fill="#FFC727"/>
</g>
<defs>
<clipPath id="clip0_29_5715">
<rect width="60" height="60" fill="white"/>
</clipPath>
</defs>
</svg>
