<svg width="500" height="500" viewBox="0 0 500 500" fill="none" xmlns="http://www.w3.org/2000/svg">
<path d="M38.1602 210.57C38.1602 210.57 30.9401 289 89.6001 351.89C148.26 414.78 238.09 433.57 310.6 450.72C383.11 467.87 444.38 435.89 460.6 374.79C476.82 313.69 423.31 286 401.89 209.79C380.47 133.58 386.1 110.6 327.44 56.1302C268.78 1.66017 165.13 11.7702 103.18 78.0002C41.2302 144.23 38.1602 210.57 38.1602 210.57Z" fill="#92E3A9"/>
<path opacity="0.7" d="M38.1602 210.57C38.1602 210.57 30.9401 289 89.6001 351.89C148.26 414.78 238.09 433.57 310.6 450.72C383.11 467.87 444.38 435.89 460.6 374.79C476.82 313.69 423.31 286 401.89 209.79C380.47 133.58 386.1 110.6 327.44 56.1302C268.78 1.66017 165.13 11.7702 103.18 78.0002C41.2302 144.23 38.1602 210.57 38.1602 210.57Z" fill="white"/>
<path d="M19.0898 374.659C22.0898 374.439 27.9098 371.189 27.9198 371.189C27.9298 371.189 24.6098 367.989 24.3698 367.809C21.6398 365.809 15.1798 363.459 12.0798 365.669C11.5744 366.05 11.1548 366.533 10.8486 367.086C10.5423 367.64 10.3562 368.252 10.3024 368.882C10.2486 369.512 10.3284 370.147 10.5364 370.744C10.7445 371.342 11.0761 371.889 11.5098 372.349C13.2798 374.379 16.5598 374.839 19.0898 374.659Z" fill="#263238"/>
<path d="M30.16 390.71C32.86 389.76 37.33 385.45 37.68 385.1C40.1405 387.666 42.7696 390.064 45.55 392.28C47.16 393.57 48.82 394.83 50.55 396.07C49.69 395.62 48.93 395.22 48.82 395.18C45.65 393.94 38.82 393.41 36.39 396.36C35.9934 396.859 35.7075 397.437 35.5511 398.055C35.3948 398.673 35.3717 399.318 35.4833 399.946C35.5948 400.573 35.8386 401.17 36.1983 401.697C36.5581 402.223 37.0256 402.667 37.57 403C39.81 404.49 43.1 404.07 45.49 403.22C47.88 402.37 51.81 398.77 52.83 397.8C53.48 398.27 54.12 398.75 54.77 399.21C57.9 401.45 61.04 403.67 64.05 405.94C65.11 406.74 66.12 407.57 67.14 408.39C66.38 407.99 65.74 407.66 65.64 407.62C62.47 406.38 55.64 405.85 53.21 408.8C52.8236 409.301 52.5471 409.878 52.3986 410.494C52.2501 411.109 52.2328 411.749 52.3479 412.372C52.463 412.994 52.7078 413.586 53.0666 414.107C53.4253 414.629 53.8898 415.069 54.43 415.4C56.67 416.88 59.96 416.46 62.35 415.62C64.74 414.78 68.29 411.51 69.5 410.37C70.5 411.24 71.5 412.11 72.5 413.01C73.13 413.63 73.78 414.19 74.38 414.85L76.19 416.77C77.29 418.02 78.44 419.31 79.48 420.57C80.22 421.44 80.9 422.27 81.59 423.12C80.59 422.31 78.46 420.77 78.28 420.66C75.28 418.96 68.65 417.39 65.82 419.95C65.3617 420.386 65.0005 420.913 64.7599 421.498C64.5193 422.083 64.4047 422.712 64.4235 423.344C64.4424 423.976 64.5943 424.598 64.8694 425.167C65.1445 425.737 65.5365 426.242 66.02 426.65C68.02 428.45 71.33 428.54 73.82 428.07C76.57 427.54 81.46 424.12 82.07 423.69C83.2 425.09 84.3 426.47 85.31 427.78C88.04 431.3 90.31 434.43 92.06 436.96L94.3 435.78C92.44 433.22 90.02 430 87.08 426.38C85.93 424.95 84.67 423.45 83.37 421.92C84.6149 420.461 85.7704 418.928 86.83 417.33C89.54 418.33 95.11 418.14 95.83 418.12C96.01 419.92 96.16 421.66 96.28 423.32C96.6 427.63 96.76 431.41 96.85 434.44L99.28 433.15C99.13 430.31 98.9 426.93 98.53 423.15C98.36 421.32 98.14 419.38 97.89 417.38C98.59 417.18 104.34 415.5 106.46 413.68C108.4 412.03 110.4 409.39 110.24 406.68C110.223 406.047 110.073 405.425 109.8 404.854C109.527 404.283 109.137 403.775 108.655 403.365C108.173 402.955 107.61 402.651 107.003 402.472C106.395 402.294 105.757 402.245 105.13 402.33C101.38 402.94 98.41 409.13 97.9 412.49C97.9 412.69 97.78 414.88 97.75 416.26C97.65 415.45 97.55 414.66 97.44 413.82C97.21 412.16 96.94 410.51 96.66 408.74C96.4933 407.893 96.3233 407.033 96.15 406.16C96 405.29 95.73 404.4 95.52 403.51C95 401.45 94.36 399.4 93.68 397.34C95.13 397.15 100.27 396.34 102.44 395.03C104.61 393.72 106.98 391.38 107.23 388.71C107.309 388.082 107.254 387.444 107.071 386.838C106.887 386.233 106.579 385.672 106.165 385.193C105.751 384.714 105.241 384.328 104.668 384.058C104.096 383.789 103.473 383.643 102.84 383.63C99.04 383.63 95.17 389.34 94.15 392.63C94.09 392.84 93.62 395.25 93.39 396.58C92.97 395.34 92.56 394.11 92.09 392.88C90.75 389.32 89.27 385.76 87.82 382.2L86.51 378.93C87.03 378.86 93.16 378.07 95.59 376.57C97.75 375.23 100.13 372.92 100.37 370.25C100.464 369.616 100.422 368.97 100.246 368.354C100.071 367.738 99.7665 367.166 99.353 366.677C98.9396 366.188 98.4268 365.793 97.8486 365.517C97.2705 365.242 96.6403 365.093 96 365.08C92.19 365.08 88.32 370.79 87.31 374.03C87.23 374.28 86.57 377.75 86.44 378.64C85.44 376.24 84.55 373.83 83.73 371.43C82.6081 368.185 81.6962 364.871 81 361.51C81.24 361.51 87.65 360.68 90.14 359.14C92.29 357.8 94.67 355.49 94.92 352.82C95 352.192 94.9472 351.555 94.765 350.949C94.5827 350.343 94.275 349.783 93.8619 349.304C93.4489 348.825 92.9396 348.438 92.3673 348.168C91.795 347.899 91.1724 347.753 90.54 347.74C86.73 347.74 82.86 353.45 81.85 356.69C81.77 356.95 81.05 360.69 80.97 361.37C80.97 361.17 80.87 360.98 80.83 360.78C80.2246 357.386 79.9201 353.946 79.92 350.5C79.92 348.6 79.98 346.78 80.1 345.01C81.31 345.01 86.83 344.81 89.23 343.67C91.63 342.53 94.13 340.54 94.68 337.91C94.8268 337.294 94.8429 336.655 94.7273 336.034C94.6117 335.412 94.3669 334.821 94.0088 334.3C93.6506 333.779 93.1871 333.339 92.6481 333.008C92.1092 332.677 91.5068 332.463 90.88 332.38C87.09 332 82.62 337.21 81.25 340.33C81.18 340.5 80.61 342.33 80.25 343.62C80.32 342.83 80.37 342 80.45 341.24C80.74 338.37 81.19 335.77 81.6 333.46C81.84 332.15 82.09 330.98 82.33 329.88C83.51 329.23 88.2 326.58 89.77 324.5C91.34 322.42 92.69 319.5 91.95 316.88C91.7981 316.262 91.5174 315.684 91.1263 315.183C90.7352 314.682 90.2426 314.269 89.6808 313.971C89.1189 313.674 88.5006 313.499 87.8662 313.457C87.2319 313.415 86.5959 313.508 86 313.73C82.46 315.13 80.9 321.82 81.12 325.21C81.12 325.51 81.97 330.06 82.03 330.02H82.1C81.85 331.07 81.59 332.2 81.33 333.45C80.87 335.75 80.33 338.35 80.01 341.22C79.5918 344.306 79.3547 347.415 79.3 350.53C79.2231 354.02 79.4574 357.511 80 360.96C80 360.96 80 361.04 80 361.08C79.5 360.08 78 357.34 77.86 357.15C75.86 354.37 70.49 350.15 66.86 351.28C66.2623 351.485 65.7146 351.814 65.2523 352.245C64.79 352.676 64.4234 353.2 64.1764 353.781C63.9294 354.363 63.8074 354.99 63.8183 355.622C63.8293 356.254 63.9729 356.877 64.24 357.45C65.29 359.92 68.24 361.39 70.73 362.01C73.51 362.7 79.61 361.57 80.1 361.48C80.7341 364.974 81.6027 368.422 82.7 371.8C83.33 373.8 84.02 375.74 84.7 377.7C84.24 376.85 83.82 376.1 83.75 376C81.75 373.22 76.38 369 72.75 370.13C72.1523 370.335 71.6046 370.664 71.1423 371.095C70.68 371.526 70.3134 372.05 70.0664 372.631C69.8194 373.213 69.6974 373.84 69.7083 374.472C69.7193 375.104 69.8629 375.727 70.13 376.3C71.18 378.78 74.13 380.24 76.61 380.86C79.09 381.48 84.34 380.63 85.72 380.38C86.01 381.13 86.28 381.88 86.57 382.63C87.94 386.23 89.33 389.81 90.57 393.36C91.01 394.61 91.4 395.86 91.8 397.11C91.39 396.36 91.03 395.73 90.97 395.64C88.97 392.86 83.59 388.64 79.97 389.77C79.3715 389.974 78.8227 390.302 78.3593 390.733C77.8959 391.164 77.5282 391.687 77.2802 392.269C77.0322 392.85 76.9093 393.478 76.9196 394.11C76.9299 394.743 77.0731 395.366 77.34 395.94C78.4 398.41 81.34 399.88 83.83 400.5C86.32 401.12 91.05 400.34 92.69 400.06C93.06 401.35 93.43 402.64 93.69 403.91C93.87 404.78 94.11 405.61 94.25 406.49C94.39 407.37 94.55 408.23 94.7 409.08C94.92 410.74 95.17 412.45 95.35 414.08C95.48 415.21 95.59 416.29 95.7 417.37C95.27 416.12 94.39 413.69 94.29 413.49C92.868 410.869 90.8034 408.653 88.29 407.05C88.1418 406.752 87.9678 406.467 87.77 406.2C87.4069 405.681 86.9389 405.245 86.3963 404.92C85.8537 404.594 85.2487 404.386 84.6205 404.31C83.9924 404.234 83.3552 404.29 82.7504 404.476C82.1455 404.662 81.5866 404.973 81.11 405.39C78.31 407.97 79.26 414.77 80.68 417.86C80.77 418.04 81.9 419.91 82.68 421.08C82.14 420.46 81.68 419.85 81.07 419.22C79.97 417.96 78.83 416.73 77.62 415.41L75.77 413.53C75.17 412.9 74.45 412.3 73.77 411.67C72.2 410.25 70.54 408.88 68.84 407.55C69.94 406.55 73.84 403.1 74.84 400.78C75.84 398.46 76.61 395.24 75.34 392.87C75.0663 392.298 74.6748 391.79 74.1912 391.38C73.7076 390.97 73.1428 390.667 72.5338 390.49C71.9248 390.313 71.2854 390.268 70.6574 390.355C70.0294 390.443 69.4271 390.663 68.89 391C65.73 393.13 65.63 400 66.57 403.27C66.63 403.47 67.57 405.74 68.11 406.97C67.11 406.18 66.11 405.38 64.99 404.61C61.91 402.38 58.71 400.22 55.54 398.06L52.64 396.06C53.04 395.72 57.71 391.68 58.91 389.06C59.97 386.75 60.68 383.52 59.41 381.15C59.1295 380.589 58.7348 380.093 58.2511 379.694C57.7675 379.295 57.2057 379.002 56.6018 378.833C55.998 378.665 55.3655 378.625 54.7452 378.715C54.1248 378.806 53.5303 379.025 53 379.36C49.84 381.48 49.74 388.36 50.69 391.62C50.76 391.86 52.12 395.13 52.5 395.94C50.38 394.46 48.28 392.94 46.26 391.42C43.5306 389.336 40.9385 387.078 38.5 384.66C38.68 384.5 43.59 380.3 44.81 377.66C45.87 375.36 46.59 372.12 45.32 369.75C45.0397 369.182 44.6432 368.68 44.1562 368.276C43.6692 367.872 43.1027 367.575 42.4934 367.405C41.8841 367.234 41.2458 367.193 40.6198 367.286C39.9938 367.378 39.3942 367.601 38.86 367.94C35.7 370.07 35.6 376.94 36.55 380.2C36.62 380.46 38.09 383.97 38.4 384.58L37.96 384.17C35.5794 381.678 33.4274 378.977 31.53 376.1C30.46 374.52 29.53 372.96 28.65 371.42C29.65 370.73 34.15 367.53 35.52 365.26C36.89 362.99 37.89 359.95 36.89 357.46C36.6748 356.864 36.3367 356.321 35.8977 355.865C35.4587 355.409 34.9286 355.05 34.3419 354.812C33.7552 354.575 33.1251 354.463 32.4924 354.485C31.8598 354.507 31.2388 354.662 30.67 354.94C27.3 356.71 26.45 363.53 27.03 366.88C27.03 367.06 27.58 368.88 28.03 370.19C27.65 369.49 27.24 368.77 26.89 368.09C25.55 365.54 24.48 363.09 23.55 360.98C23.04 359.75 22.55 358.63 22.19 357.58C22.81 356.4 25.26 351.58 25.42 349C25.58 346.42 25 343.17 23 341.42C22.5347 340.991 21.9843 340.664 21.3847 340.462C20.7851 340.26 20.1496 340.186 19.5195 340.245C18.8895 340.305 18.279 340.496 17.7277 340.807C17.1765 341.118 16.6968 341.541 16.32 342.05C14.14 345.17 16.53 351.61 18.59 354.32C18.77 354.56 21.97 357.89 22 357.83V357.76C22.37 358.76 22.78 359.87 23.24 361.05C24.13 363.22 25.15 365.67 26.43 368.26C27.792 371.067 29.318 373.792 31 376.42C32.8601 379.371 34.9784 382.152 37.33 384.73L37.42 384.82C36.42 384.26 33.69 382.82 33.42 382.72C30.25 381.48 23.42 380.95 21 383.9C20.6133 384.4 20.3364 384.976 20.1872 385.59C20.038 386.204 20.0199 386.843 20.134 387.465C20.2482 388.086 20.4921 388.677 20.8497 389.198C21.2074 389.719 21.6709 390.159 22.21 390.49C24.48 392 27.76 391.56 30.16 390.71Z" fill="#263238"/>
<path d="M79.5997 344.46C79.6697 344.46 78.5997 339.96 78.4997 339.68C77.3497 336.48 73.2397 330.98 69.4297 331.11C68.7991 331.151 68.1842 331.325 67.6248 331.619C67.0654 331.912 66.5738 332.32 66.1818 332.816C65.7898 333.312 65.5061 333.884 65.349 334.496C65.1918 335.108 65.1648 335.747 65.2697 336.37C65.6397 339.04 68.1097 341.24 70.3297 342.48C72.9297 343.94 79.5897 344.46 79.5997 344.46Z" fill="#263238"/>
<path d="M479.23 374.659C476.23 374.439 470.41 371.189 470.41 371.189C470.41 371.189 473.72 367.989 473.95 367.809C476.68 365.809 483.15 363.459 486.25 365.669C486.755 366.051 487.174 366.534 487.479 367.088C487.784 367.642 487.969 368.254 488.022 368.884C488.075 369.515 487.994 370.149 487.786 370.746C487.577 371.343 487.244 371.889 486.81 372.349C485 374.379 481.76 374.839 479.23 374.659Z" fill="#263238"/>
<path d="M468.17 390.709C465.47 389.759 461 385.449 460.64 385.099C458.181 387.668 455.552 390.066 452.77 392.279C451.16 393.569 449.5 394.829 447.82 396.069C448.67 395.619 449.44 395.219 449.55 395.179C452.72 393.939 459.55 393.409 461.97 396.359C462.356 396.86 462.632 397.436 462.78 398.051C462.929 398.666 462.946 399.305 462.831 399.927C462.716 400.549 462.471 401.139 462.112 401.66C461.754 402.181 461.289 402.62 460.75 402.949C458.51 404.439 455.23 404.019 452.83 403.169C450.43 402.319 446.51 398.719 445.5 397.749L443.55 399.159C440.42 401.399 437.29 403.619 434.28 405.889C433.22 406.689 432.2 407.519 431.18 408.339C431.94 407.939 432.58 407.609 432.69 407.569C435.85 406.329 442.69 405.799 445.11 408.749C445.496 409.251 445.772 409.828 445.921 410.444C446.069 411.059 446.087 411.699 445.972 412.321C445.857 412.944 445.612 413.535 445.253 414.057C444.894 414.579 444.43 415.019 443.89 415.349C441.65 416.829 438.36 416.409 435.97 415.569C433.58 414.729 430.03 411.459 428.82 410.319C427.82 411.189 426.82 412.059 425.82 412.959C425.18 413.579 424.53 414.139 423.93 414.799C423.33 415.459 422.72 416.079 422.13 416.719C421.02 417.969 419.88 419.259 418.83 420.519C418.1 421.389 417.41 422.219 416.72 423.069C417.77 422.259 419.85 420.719 420.04 420.609C422.98 418.909 429.67 417.339 432.49 419.899C432.948 420.335 433.309 420.863 433.55 421.448C433.79 422.033 433.905 422.662 433.886 423.294C433.867 423.926 433.715 424.547 433.44 425.117C433.165 425.686 432.773 426.191 432.29 426.599C430.29 428.399 426.99 428.489 424.49 428.019C421.75 427.489 416.86 424.069 416.25 423.639C415.11 425.039 414.02 426.419 413 427.729C410.28 431.249 408 434.379 406.25 436.909L404 435.729C405.86 433.169 408.29 429.949 411.22 426.329C412.37 424.899 413.63 423.399 414.94 421.869C413.693 420.409 412.535 418.876 411.47 417.279C408.76 418.279 403.19 418.089 402.47 418.069C402.3 419.869 402.14 421.609 402.02 423.269C401.7 427.579 401.54 431.359 401.46 434.389L399.02 433.099C399.17 430.259 399.41 426.879 399.77 423.099C399.95 421.269 400.17 419.329 400.41 417.329C399.71 417.129 393.97 415.449 391.84 413.629C389.91 411.979 387.91 409.339 388.07 406.629C388.085 405.997 388.233 405.375 388.505 404.804C388.777 404.233 389.167 403.726 389.648 403.315C390.129 402.905 390.692 402.6 391.298 402.422C391.905 402.243 392.543 402.195 393.17 402.279C396.93 402.889 399.89 409.079 400.4 412.439C400.4 412.639 400.52 414.829 400.55 416.209C400.66 415.399 400.75 414.609 400.87 413.769C401.09 412.109 401.36 410.459 401.65 408.689C401.81 407.839 401.98 406.979 402.15 406.109C402.32 405.239 402.57 404.349 402.78 403.459C403.31 401.399 403.94 399.349 404.62 397.289C403.17 397.099 398.03 396.289 395.86 394.979C393.69 393.669 391.32 391.329 391.08 388.659C390.999 388.032 391.052 387.394 391.235 386.789C391.417 386.183 391.725 385.622 392.138 385.143C392.551 384.664 393.06 384.277 393.632 384.008C394.204 383.738 394.827 383.592 395.46 383.579C399.27 383.579 403.14 389.289 404.15 392.579C404.22 392.789 404.68 395.199 404.91 396.529C405.33 395.289 405.75 394.059 406.21 392.829C407.56 389.269 409.03 385.709 410.48 382.149C410.93 381.059 411.36 379.969 411.79 378.879C411.28 378.809 405.14 378.019 402.71 376.519C400.56 375.179 398.18 372.869 397.93 370.199C397.849 369.572 397.902 368.935 398.085 368.329C398.267 367.723 398.574 367.162 398.988 366.683C399.401 366.204 399.91 365.817 400.482 365.548C401.054 365.278 401.677 365.132 402.31 365.119C406.12 365.119 409.99 370.829 411.01 374.069C411.08 374.319 411.75 377.789 411.87 378.679C412.87 376.279 413.76 373.869 414.59 371.469C415.715 368.225 416.63 364.911 417.33 361.549C417.09 361.549 410.69 360.719 408.2 359.179C406.04 357.839 403.66 355.529 403.41 352.859C403.331 352.231 403.385 351.594 403.569 350.988C403.752 350.382 404.061 349.822 404.475 349.343C404.889 348.864 405.398 348.477 405.971 348.208C406.544 347.939 407.167 347.793 407.8 347.779C411.61 347.779 415.47 353.489 416.49 356.729C416.57 356.989 417.28 360.729 417.36 361.409C417.36 361.209 417.47 361.019 417.5 360.819C418.11 357.427 418.414 353.986 418.41 350.539C418.41 348.639 418.35 346.819 418.23 345.049C417.02 345.049 411.5 344.849 409.11 343.709C406.72 342.569 404.2 340.579 403.66 337.949C403.511 337.334 403.494 336.695 403.609 336.072C403.724 335.45 403.968 334.859 404.327 334.337C404.685 333.816 405.149 333.375 405.689 333.045C406.229 332.714 406.832 332.501 407.46 332.419C411.25 332.039 415.72 337.249 417.08 340.369C417.16 340.539 417.72 342.369 418.08 343.659C418.01 342.869 417.96 342.039 417.88 341.279C417.59 338.409 417.15 335.809 416.73 333.499C416.49 332.189 416.24 331.019 416 329.919C414.83 329.269 410.14 326.619 408.57 324.539C407 322.459 405.65 319.539 406.38 316.919C406.532 316.306 406.812 315.731 407.201 315.232C407.59 314.734 408.08 314.323 408.638 314.026C409.196 313.729 409.811 313.552 410.441 313.508C411.072 313.464 411.705 313.553 412.3 313.769C415.84 315.169 417.4 321.859 417.18 325.249C417.18 325.549 416.33 330.099 416.27 330.059H416.2C416.45 331.109 416.72 332.239 416.98 333.489C417.44 335.789 417.98 338.389 418.3 341.259C418.714 344.346 418.948 347.455 419 350.569C419.08 354.06 418.849 357.55 418.31 360.999V361.119C418.81 360.119 420.31 357.379 420.45 357.189C422.45 354.409 427.82 350.189 431.45 351.319C432.048 351.524 432.597 351.852 433.06 352.283C433.523 352.713 433.89 353.237 434.138 353.819C434.385 354.401 434.507 355.029 434.495 355.661C434.483 356.294 434.338 356.917 434.07 357.489C433.02 359.959 430.07 361.429 427.59 362.049C424.81 362.739 418.7 361.609 418.21 361.519C417.575 365.014 416.707 368.462 415.61 371.839C414.98 373.839 414.29 375.779 413.61 377.739C414.07 376.889 414.49 376.139 414.56 376.039C416.56 373.259 421.94 369.039 425.56 370.169C426.158 370.374 426.707 370.702 427.17 371.133C427.634 371.563 428.001 372.086 428.249 372.668C428.497 373.25 428.62 373.878 428.61 374.51C428.6 375.143 428.456 375.766 428.19 376.339C427.13 378.819 424.19 380.279 421.7 380.899C419.21 381.519 413.97 380.669 412.59 380.419L411.75 382.669C410.37 386.269 408.98 389.849 407.75 393.399C407.31 394.649 406.92 395.899 406.53 397.149C406.94 396.399 407.29 395.769 407.35 395.679C409.35 392.899 414.73 388.679 418.35 389.809C418.947 390.015 419.495 390.344 419.957 390.775C420.42 391.206 420.786 391.729 421.033 392.311C421.28 392.893 421.402 393.52 421.391 394.152C421.38 394.784 421.237 395.406 420.97 395.979C419.91 398.449 416.97 399.919 414.48 400.539C411.99 401.159 407.26 400.379 405.62 400.099C405.26 401.389 404.89 402.679 404.62 403.949C404.44 404.819 404.2 405.649 404.07 406.529C403.94 407.409 403.77 408.269 403.62 409.119C403.39 410.779 403.15 412.489 402.97 414.119C402.83 415.249 402.72 416.329 402.61 417.409C403.04 416.159 403.93 413.729 404.02 413.529C405.422 410.877 407.481 408.629 410 406.999C410.14 406.697 410.315 406.412 410.52 406.149C410.882 405.631 411.349 405.195 411.89 404.87C412.432 404.544 413.036 404.337 413.664 404.26C414.291 404.184 414.928 404.24 415.532 404.426C416.136 404.612 416.694 404.923 417.17 405.339C419.97 407.919 419.03 414.719 417.6 417.809C417.51 417.989 416.38 419.859 415.6 421.029C416.14 420.409 416.66 419.799 417.22 419.169C418.32 417.909 419.45 416.679 420.67 415.359L422.51 413.479C423.12 412.849 423.84 412.249 424.51 411.619C426.08 410.199 427.74 408.829 429.45 407.499C428.35 406.499 424.45 403.049 423.45 400.729C422.45 398.409 421.67 395.189 422.94 392.819C423.219 392.251 423.615 391.748 424.101 391.343C424.588 390.938 425.154 390.64 425.764 390.469C426.373 390.297 427.012 390.255 427.638 390.347C428.265 390.438 428.865 390.661 429.4 390.999C432.56 393.129 432.65 399.999 431.71 403.269C431.65 403.469 430.71 405.739 430.17 406.969C431.17 406.179 432.22 405.379 433.29 404.609C436.38 402.379 439.57 400.219 442.75 398.059L445.64 396.059C445.25 395.719 440.57 391.679 439.37 389.059C438.31 386.749 437.6 383.519 438.87 381.149C439.149 380.581 439.545 380.078 440.031 379.673C440.518 379.268 441.085 378.97 441.695 378.8C442.304 378.629 442.943 378.589 443.57 378.682C444.196 378.775 444.796 378.999 445.33 379.339C448.48 381.459 448.58 388.339 447.64 391.599C447.57 391.839 446.21 395.109 445.82 395.919C447.95 394.439 450.05 392.919 452.06 391.399C454.791 389.318 457.383 387.06 459.82 384.639C459.64 384.479 454.74 380.279 453.51 377.639C452.45 375.339 451.74 372.099 453.01 369.729C453.289 369.162 453.684 368.661 454.17 368.257C454.656 367.853 455.222 367.556 455.831 367.385C456.439 367.214 457.077 367.174 457.702 367.266C458.327 367.358 458.926 367.58 459.46 367.919C462.62 370.049 462.72 376.919 461.77 380.179C461.7 380.439 460.24 383.949 459.93 384.559L460.37 384.149C462.744 381.655 464.893 378.954 466.79 376.079C467.86 374.499 468.79 372.939 469.67 371.399C468.67 370.709 464.17 367.509 462.81 365.239C461.45 362.969 460.44 359.929 461.44 357.439C461.655 356.844 461.993 356.301 462.432 355.845C462.871 355.388 463.401 355.03 463.988 354.792C464.574 354.554 465.204 354.443 465.837 354.465C466.47 354.487 467.091 354.642 467.66 354.919C471.03 356.689 471.88 363.509 471.3 366.859C471.3 367.039 470.74 368.859 470.3 370.169C470.68 369.469 471.09 368.749 471.45 368.069C472.79 365.519 473.85 363.069 474.78 360.959C475.3 359.729 475.78 358.609 476.15 357.559C475.52 356.379 473.08 351.559 472.91 348.979C472.74 346.399 473.26 343.169 475.29 341.419C475.755 340.99 476.305 340.664 476.905 340.462C477.504 340.26 478.14 340.186 478.77 340.245C479.4 340.305 480.011 340.496 480.562 340.807C481.113 341.118 481.593 341.541 481.97 342.049C484.15 345.169 481.76 351.609 479.71 354.319C479.53 354.559 476.32 357.889 476.29 357.829V357.759C475.93 358.759 475.52 359.869 475.05 361.049C474.17 363.219 473.15 365.669 471.86 368.259C470.504 371.066 468.985 373.791 467.31 376.419C465.456 379.376 463.337 382.157 460.98 384.729L460.89 384.819C461.89 384.259 464.62 382.819 464.89 382.719C468.05 381.479 474.89 380.949 477.31 383.899C477.696 384.4 477.972 384.976 478.121 385.591C478.269 386.206 478.286 386.845 478.171 387.467C478.056 388.088 477.811 388.679 477.452 389.2C477.094 389.721 476.629 390.16 476.09 390.489C473.85 391.999 470.56 391.559 468.17 390.709Z" fill="#263238"/>
<path d="M418.73 344.46C418.66 344.46 419.73 339.96 419.82 339.68C420.97 336.48 425.09 330.98 428.89 331.11C429.521 331.15 430.137 331.322 430.697 331.616C431.257 331.909 431.749 332.317 432.142 332.813C432.534 333.309 432.817 333.882 432.974 334.495C433.13 335.108 433.156 335.746 433.05 336.37C432.69 339.04 430.21 341.24 428 342.48C425.4 343.94 418.73 344.46 418.73 344.46Z" fill="#263238"/>
<path d="M92.23 200.601L93.06 201.151" stroke="#263238" stroke-miterlimit="10"/>
<path d="M94.7402 202.24L247.97 301.87" stroke="#263238" stroke-miterlimit="10" stroke-dasharray="2 2"/>
<path d="M248.81 302.421L249.64 302.961L249.1 302.131" stroke="#263238" stroke-miterlimit="10"/>
<path d="M248.02 300.46L116.58 98.3604" stroke="#263238" stroke-miterlimit="10" stroke-dasharray="1.98 1.98"/>
<path d="M116.03 97.5304L115.49 96.6904" stroke="#263238" stroke-miterlimit="10"/>
<path d="M407.06 200.601L406.23 201.151" stroke="#263238" stroke-miterlimit="10"/>
<path d="M404.55 202.24L251.32 301.87" stroke="#263238" stroke-miterlimit="10" stroke-dasharray="2 2"/>
<path d="M250.48 302.421L249.64 302.961L250.19 302.131" stroke="#263238" stroke-miterlimit="10"/>
<path d="M251.27 300.46L382.71 98.3604" stroke="#263238" stroke-miterlimit="10" stroke-dasharray="1.98 1.98"/>
<path d="M383.25 97.5304L383.8 96.6904" stroke="#263238" stroke-miterlimit="10"/>
<path d="M249.64 65.6699V66.6699" stroke="#263238" stroke-miterlimit="10"/>
<path d="M249.64 68.6807V300.961" stroke="#263238" stroke-miterlimit="10" stroke-dasharray="2.01 2.01"/>
<path d="M249.64 301.96V302.96" stroke="#263238" stroke-miterlimit="10"/>
<path d="M251.51 91.9004C268.493 91.9004 282.26 78.1331 282.26 61.1504C282.26 44.1676 268.493 30.4004 251.51 30.4004C234.527 30.4004 220.76 44.1676 220.76 61.1504C220.76 78.1331 234.527 91.9004 251.51 91.9004Z" fill="#263238" stroke="#263238" stroke-width="2" stroke-miterlimit="10"/>
<path d="M251.51 61.1507L277.39 44.5507C273.567 38.5977 267.811 34.1417 261.09 31.9307L251.51 61.1507Z" fill="#92E3A9" stroke="#263238" stroke-miterlimit="10"/>
<path d="M251.51 61.1508L266 88.2608C269.738 86.2569 273.021 83.5013 275.643 80.1673C278.265 76.8334 280.168 72.9931 281.234 68.888C282.3 64.7828 282.506 60.5015 281.837 56.3132C281.169 52.1249 279.641 48.1202 277.35 44.5508L251.51 61.1508Z" fill="white" stroke="#263238" stroke-miterlimit="10"/>
<path d="M400.413 118.233C412.417 106.228 412.417 86.7643 400.413 74.7596C388.408 62.7549 368.944 62.7549 356.94 74.7596C344.935 86.7643 344.935 106.228 356.94 118.233C368.944 130.237 388.408 130.237 400.413 118.233Z" stroke="#263238" stroke-miterlimit="10"/>
<path d="M378.67 123.151C393.388 123.151 405.32 111.219 405.32 96.5006C405.32 81.7822 393.388 69.8506 378.67 69.8506C363.952 69.8506 352.02 81.7822 352.02 96.5006C352.02 111.219 363.952 123.151 378.67 123.151Z" fill="#263238"/>
<path d="M394 96.5008L368.19 81.5908V111.401L394 96.5008Z" fill="white"/>
<path d="M453.921 204.251C458.048 187.021 447.426 169.707 430.196 165.58C412.966 161.453 395.653 172.075 391.526 189.305C387.399 206.535 398.021 223.849 415.251 227.976C432.481 232.103 449.794 221.481 453.921 204.251Z" fill="#263238"/>
<path d="M445.03 202.122C447.966 189.815 440.37 177.457 428.062 174.521C415.755 171.584 403.397 179.181 400.461 191.488C397.524 203.795 405.121 216.153 417.428 219.09C429.735 222.026 442.093 214.43 445.03 202.122Z" fill="white"/>
<path d="M436.079 199.949C437.834 192.561 433.267 185.149 425.879 183.394C418.49 181.639 411.078 186.206 409.324 193.595C407.569 200.983 412.136 208.395 419.524 210.15C426.913 211.905 434.325 207.338 436.079 199.949Z" fill="#263238"/>
<path d="M429.951 198.517C430.893 194.541 428.433 190.553 424.457 189.611C420.48 188.668 416.492 191.128 415.55 195.105C414.608 199.082 417.068 203.07 421.044 204.012C425.021 204.954 429.009 202.494 429.951 198.517Z" fill="white"/>
<path d="M463.6 181.401L459.52 179.811L461.3 178.941C461.403 178.894 461.495 178.827 461.572 178.743C461.649 178.66 461.708 178.562 461.747 178.456C461.785 178.349 461.802 178.236 461.796 178.123C461.79 178.01 461.762 177.899 461.712 177.797C461.663 177.695 461.594 177.604 461.509 177.529C461.424 177.454 461.325 177.397 461.217 177.361C461.11 177.325 460.996 177.311 460.884 177.32C460.771 177.328 460.661 177.359 460.56 177.411L459.27 178.041L461.32 173.601L453.71 177.001L452.6 181.271L422.35 196.001C422.249 196.05 422.159 196.118 422.085 196.202C422.011 196.286 421.954 196.384 421.918 196.49C421.882 196.595 421.867 196.708 421.874 196.819C421.881 196.931 421.91 197.04 421.96 197.141C422.007 197.242 422.074 197.333 422.156 197.407C422.239 197.482 422.336 197.539 422.442 197.576C422.547 197.612 422.659 197.627 422.77 197.619C422.882 197.611 422.99 197.581 423.09 197.531L453.44 182.751L456.75 184.621L463.6 181.401Z" fill="#263238"/>
<path d="M118.17 127.231C135.882 127.231 150.24 112.873 150.24 95.1608C150.24 77.4491 135.882 63.0908 118.17 63.0908C100.458 63.0908 86.1001 77.4491 86.1001 95.1608C86.1001 112.873 100.458 127.231 118.17 127.231Z" fill="white" stroke="#263238" stroke-width="2" stroke-miterlimit="10"/>
<path d="M118.17 127.231C131.016 127.231 141.43 112.873 141.43 95.1608C141.43 77.4491 131.016 63.0908 118.17 63.0908C105.324 63.0908 94.9102 77.4491 94.9102 95.1608C94.9102 112.873 105.324 127.231 118.17 127.231Z" fill="white" stroke="#263238" stroke-miterlimit="10"/>
<path d="M118.17 127.231C123.638 127.231 128.07 112.873 128.07 95.1608C128.07 77.4491 123.638 63.0908 118.17 63.0908C112.702 63.0908 108.27 77.4491 108.27 95.1608C108.27 112.873 112.702 127.231 118.17 127.231Z" fill="white" stroke="#263238" stroke-miterlimit="10"/>
<path d="M101.18 68.0703H135.73" stroke="#263238" stroke-miterlimit="10"/>
<path d="M89.5601 80.6406H146.73" stroke="#263238" stroke-miterlimit="10"/>
<path d="M86.2603 93.2002H150.18" stroke="#263238" stroke-miterlimit="10"/>
<path d="M87.6699 105.771H148.3" stroke="#263238" stroke-miterlimit="10"/>
<path d="M96.3101 118.33H140.6" stroke="#263238" stroke-miterlimit="10"/>
<path d="M76.1901 228.861C93.9019 228.861 108.26 214.502 108.26 196.791C108.26 179.079 93.9019 164.721 76.1901 164.721C58.4783 164.721 44.1201 179.079 44.1201 196.791C44.1201 214.502 58.4783 228.861 76.1901 228.861Z" fill="#263238" stroke="#263238" stroke-width="2" stroke-miterlimit="10"/>
<path d="M96.51 181.631H53.98V215.661H96.51V181.631Z" fill="white" stroke="#263238" stroke-width="2" stroke-miterlimit="10"/>
<path d="M99.1703 181.631H51.3203V195.451H99.1703V181.631Z" fill="white" stroke="#263238" stroke-width="2" stroke-miterlimit="10"/>
<path d="M75.2 181.291C75.2 181.291 65.2 169.581 63.49 170.141C61.78 170.701 57.36 178.501 59.87 179.341C62.38 180.181 75.2 181.291 75.2 181.291Z" fill="#92E3A9"/>
<path d="M75.29 181.291C75.29 181.291 85.29 169.581 87 170.141C88.71 170.701 93.14 178.501 90.63 179.341C88.12 180.181 75.29 181.291 75.29 181.291Z" fill="#92E3A9"/>
<path d="M78.2701 205.551L75.2601 200.321L72.1401 205.551V182.131H78.2701V205.551Z" fill="#92E3A9"/>
<path d="M90.3901 285.14L249.53 195.57L412.57 285.14V414.99H92.3501L90.3901 285.14Z" fill="#263238" stroke="#263238" stroke-linecap="round" stroke-linejoin="round"/>
<path d="M370.6 219.73H132.38V431.59H370.6V219.73Z" fill="white" stroke="#263238" stroke-miterlimit="10"/>
<path d="M159.71 256.83H340.33" stroke="#263238" stroke-miterlimit="10"/>
<path d="M159.71 275.38H340.33" stroke="#263238" stroke-miterlimit="10"/>
<path d="M159.71 293.931H340.33" stroke="#263238" stroke-miterlimit="10"/>
<path d="M159.71 312.48H340.33" stroke="#263238" stroke-miterlimit="10"/>
<path d="M159.71 331.03H340.33" stroke="#263238" stroke-miterlimit="10"/>
<path d="M159.71 349.58H340.33" stroke="#263238" stroke-miterlimit="10"/>
<path d="M412.57 463.811H90.3901V285.141L251.49 394.491L412.57 285.141V463.811Z" fill="#92E3A9" stroke="#263238" stroke-miterlimit="10"/>
<path d="M90.3901 463.811L207.53 364.601" stroke="#263238" stroke-miterlimit="10"/>
<path d="M412.06 463.81L295.79 364.44" stroke="#263238" stroke-miterlimit="10"/>
<path d="M286.33 160.671C286.33 160.671 285.12 166.331 286.74 168.151C288.36 169.971 294.42 176.441 294.42 177.451C294.42 178.461 292.42 207.581 292.42 207.581L283.12 200.911L277.46 218.301C277.46 218.301 291.61 224.371 298.29 225.581C304.97 226.791 306.17 224.971 306.17 219.721C306.17 214.471 300.91 174.221 300.91 174.221C300.91 174.221 302.53 164.921 302.53 163.301C302.53 161.681 303.14 160.871 301.72 160.061C300.3 159.251 288.78 158.061 288.78 158.061C288.78 158.061 286.33 159.051 286.33 160.671Z" fill="white" stroke="#263238" stroke-linecap="round" stroke-linejoin="round"/>
<path d="M283.33 203.36L280.26 218.94L277.44 218.3L283.33 203.36Z" fill="#263238" stroke="#263238" stroke-linecap="round" stroke-linejoin="round"/>
<path d="M306 165.21L283.09 162.13V156.42C283.09 156.155 283.195 155.9 283.383 155.713C283.57 155.525 283.825 155.42 284.09 155.42C284.355 155.42 284.609 155.525 284.797 155.713C284.985 155.9 285.09 156.155 285.09 156.42V160.42L304.24 163L304.57 158.38C304.549 158.232 304.561 158.082 304.606 157.939C304.651 157.797 304.727 157.666 304.829 157.557C304.931 157.448 305.056 157.363 305.194 157.309C305.333 157.254 305.483 157.231 305.632 157.242C305.78 157.253 305.925 157.297 306.055 157.371C306.184 157.444 306.296 157.546 306.381 157.669C306.466 157.791 306.523 157.931 306.547 158.079C306.571 158.226 306.562 158.377 306.52 158.52L306 165.21Z" fill="#263238"/>
<path d="M288.36 163.3L300.89 164.51L301.7 160.06L288.76 158.04L288.36 163.3Z" fill="white" stroke="#263238" stroke-linecap="round" stroke-linejoin="round"/>
<path d="M286.13 163.91C286.13 163.91 286.13 158.85 286.74 158.45C287.35 158.05 296.04 158.65 296.04 159.86C296.04 161.07 296.04 161.68 295.04 161.68C294.04 161.68 292.04 161.88 292.04 161.88C292.04 161.88 296.69 166.13 295.27 169.97" fill="white"/>
<path d="M286.13 163.91C286.13 163.91 286.13 158.85 286.74 158.45C287.35 158.05 296.04 158.65 296.04 159.86C296.04 161.07 296.04 161.68 295.04 161.68C294.04 161.68 292.04 161.88 292.04 161.88C292.04 161.88 296.69 166.13 295.27 169.97" stroke="#263238" stroke-linecap="round" stroke-linejoin="round"/>
<path d="M292.4 207.58L291.59 216.48" stroke="#263238" stroke-linecap="round" stroke-linejoin="round"/>
<path d="M189.71 203.7C189.71 203.7 161.13 226 161.87 228.41C162.61 230.82 183.81 251.09 190.82 256.06C197.83 261.03 201.7 263.26 201.7 263.26L206.12 266.02C206.12 266.02 204.28 269.02 205.39 269.53C206.5 270.04 210.55 272.11 211.1 271C211.65 269.89 214.61 261.6 214.24 259.57C213.87 257.54 203.17 255.88 202.44 255.14C201.71 254.4 184.18 227.14 184.18 227.14L197.83 216.45L189.71 203.7Z" fill="white" stroke="#263238" stroke-linecap="round" stroke-linejoin="round"/>
<path d="M189.22 204.44L194.41 218.51L197.83 216.42L189.22 204.44Z" fill="#263238" stroke="#263238" stroke-linecap="round" stroke-linejoin="round"/>
<path d="M206.12 266C206.12 266 207.42 268.77 209.63 269" stroke="#263238" stroke-linecap="round" stroke-linejoin="round"/>
<path d="M184.18 227.11L180.49 220.66" stroke="#263238" stroke-linecap="round" stroke-linejoin="round"/>
<path d="M208.71 429.02L208.41 445.41L221.84 445.7L223.03 427.84L208.71 429.02Z" fill="white" stroke="#263238" stroke-linecap="round" stroke-linejoin="round"/>
<path d="M208.76 428.131V432.181L222.69 432.831L223.01 428.621L208.76 428.131Z" fill="#263238" stroke="#263238" stroke-linecap="round" stroke-linejoin="round"/>
<path d="M215.05 441.13C215.05 441.13 213.28 434.19 210.62 434.04C207.96 433.89 206.62 435.96 205.62 437.88C204.62 439.8 198.09 446.29 195.87 447.88C193.65 449.47 188.79 451.57 188.05 456.29C187.31 461.01 190.11 462.94 192.05 463.38C193.99 463.82 202.68 463.97 207.85 463.38C213.02 462.79 227.11 464.19 227.93 463.38C228.75 462.57 229.85 459.98 229.11 458.21C228.53 456.921 227.838 455.687 227.04 454.52C227.04 454.52 228.52 450.24 227.63 447.88C226.74 445.52 224.97 442.56 225.27 441.23C225.57 439.9 228.81 437.1 226.6 436.95C224.39 436.8 220.84 439.46 218.6 440.2C217.449 440.621 216.26 440.933 215.05 441.13Z" fill="#263238" stroke="#263238" stroke-linecap="round" stroke-linejoin="round"/>
<path d="M224.5 455.15C222.43 455.45 214.5 459.28 209.44 460.47C204.38 461.66 200 461.79 197.63 460.61C195.26 459.43 193.2 455.89 191.43 453.67C189.66 451.45 188.19 457.07 188.19 457.07L187.94 457.18C187.64 461.29 190.22 463 192.02 463.42C193.82 463.84 202.65 464.01 207.82 463.42C212.99 462.83 227.08 464.23 227.9 463.42C228.72 462.61 229.82 460.02 229.08 458.25C228.5 456.962 227.807 455.727 227.01 454.56C226.13 454.41 226.57 454.86 224.5 455.15Z" fill="white" stroke="#263238" stroke-linecap="round" stroke-linejoin="round"/>
<path d="M203 442C203 442 207 441.12 212 446L209.35 448.21C209.35 448.21 204.18 444.21 200.93 444.21L203 442Z" fill="white" stroke="#263238" stroke-linecap="round" stroke-linejoin="round"/>
<path d="M199.26 445C199.26 445 203.26 444.11 208.26 449L205.61 451.22C205.61 451.22 200.44 447.22 197.19 447.22L199.26 445Z" fill="white" stroke="#263238" stroke-linecap="round" stroke-linejoin="round"/>
<path d="M210.92 444.521L215.05 441.131" stroke="#263238" stroke-linecap="round" stroke-linejoin="round"/>
<path d="M205.61 451.17C205.61 451.17 206.61 453.38 204.87 454.71C203.13 456.04 191.43 453.82 191.58 452.2C191.73 450.58 197.19 447.2 197.19 447.2C200.242 447.925 203.109 449.277 205.61 451.17Z" fill="white" stroke="#263238" stroke-linecap="round" stroke-linejoin="round"/>
<path d="M293.42 429.02L293.71 445.41L280.28 445.7L279.1 427.84L293.42 429.02Z" fill="white" stroke="#263238" stroke-linecap="round" stroke-linejoin="round"/>
<path d="M279.36 430.881V433.311L293.61 433.151L293.45 429.591L279.04 429.431L279.36 430.881Z" fill="#263238" stroke="#263238" stroke-linecap="round" stroke-linejoin="round"/>
<path d="M287.07 441.13C287.07 441.13 288.84 434.19 291.5 434.04C294.16 433.89 295.5 435.96 296.5 437.88C297.5 439.8 304.03 446.29 306.24 447.88C308.45 449.47 313.33 451.57 314.06 456.29C314.79 461.01 312 462.94 310.06 463.38C308.12 463.82 299.43 463.97 294.26 463.38C289.09 462.79 275 464.19 274.19 463.38C273.38 462.57 272.27 459.98 273 458.21C273.58 456.921 274.273 455.687 275.07 454.52C275.07 454.52 273.59 450.24 274.48 447.88C275.37 445.52 277.14 442.56 276.84 441.23C276.54 439.9 273.3 437.1 275.51 436.95C277.72 436.8 281.27 439.46 283.51 440.2C284.664 440.623 285.856 440.934 287.07 441.13Z" fill="#263238" stroke="#263238" stroke-linecap="round" stroke-linejoin="round"/>
<path d="M277.62 455.15C279.69 455.45 287.62 459.28 292.68 460.47C297.74 461.66 302.13 461.79 304.49 460.61C306.85 459.43 308.92 455.89 310.69 453.67C312.46 451.45 313.94 457.07 313.94 457.07L314.18 457.18C314.48 461.29 311.9 463 310.1 463.42C308.3 463.84 299.47 464.01 294.3 463.42C289.13 462.83 275.04 464.23 274.23 463.42C273.42 462.61 272.31 460.02 273.04 458.25C273.62 456.962 274.313 455.727 275.11 454.56C276 454.41 275.55 454.86 277.62 455.15Z" fill="white" stroke="#263238" stroke-linecap="round" stroke-linejoin="round"/>
<path d="M299.17 442C299.17 442 295.17 441.12 290.17 446L292.83 448.21C292.83 448.21 297.99 444.21 301.24 444.21L299.17 442Z" fill="white" stroke="#263238" stroke-linecap="round" stroke-linejoin="round"/>
<path d="M302.86 445C302.86 445 298.86 444.11 293.86 449L296.52 451.22C296.52 451.22 301.68 447.22 304.93 447.22L302.86 445Z" fill="white" stroke="#263238" stroke-linecap="round" stroke-linejoin="round"/>
<path d="M291.2 444.521L287.07 441.131" stroke="#263238" stroke-linecap="round" stroke-linejoin="round"/>
<path d="M296.52 451.17C296.52 451.17 295.52 453.38 297.25 454.71C298.98 456.04 310.69 453.82 310.54 452.2C310.39 450.58 304.93 447.2 304.93 447.2C301.881 447.924 299.016 449.276 296.52 451.17Z" fill="white" stroke="#263238" stroke-linecap="round" stroke-linejoin="round"/>
<path d="M214.88 256C214.88 256 207.07 287.89 204.14 314.91C201.21 341.93 196.65 430.44 196.65 430.44H232.45C232.45 430.44 243.19 340.61 244.82 324.67C246.45 308.73 246.44 298.67 246.44 298.67L266.62 430.48H309.25C309.25 430.48 292.98 346.84 286.47 308.48C279.96 270.12 270.85 255.11 270.85 255.11L214.88 256Z" fill="#B0B0B0" stroke="#263238" stroke-linecap="round" stroke-linejoin="round"/>
<path d="M245.47 258.311C245.16 259.241 236.68 271.981 239.28 272.951C241.88 273.921 246.77 273.951 246.77 271.331V260.911C246.77 260.911 247.42 275.561 250.35 274.911C253.28 274.261 257.18 274.911 256.21 271.651C255.24 268.391 247.75 258.001 247.75 258.001C247.75 258.001 246.44 255.381 245.47 258.311Z" fill="#B0B0B0" stroke="#263238" stroke-linecap="round" stroke-linejoin="round"/>
<path d="M246.81 259.38C246.81 259.38 254.19 269.86 253.48 270.81C252.77 271.76 251.81 272.71 251.1 271.29C250.39 269.87 246.81 259.38 246.81 259.38Z" stroke="#263238" stroke-miterlimit="10"/>
<path d="M246.57 258.19C246.57 258.19 241.09 269.86 241.81 270.33C242.067 270.489 242.358 270.584 242.659 270.608C242.96 270.632 243.262 270.584 243.541 270.467C243.819 270.351 244.066 270.17 244.261 269.939C244.456 269.708 244.593 269.435 244.66 269.14C245.14 267.48 246.57 258.19 246.57 258.19Z" stroke="#263238" stroke-miterlimit="10"/>
<path d="M268.81 291.45C269.11 293.1 269.37 294.66 269.55 296.06" stroke="#263238" stroke-linecap="round" stroke-linejoin="round"/>
<path d="M261.09 259.29C261.09 259.29 265.15 273.79 267.76 286.1" stroke="#263238" stroke-linecap="round" stroke-linejoin="round"/>
<path d="M258.16 259.29C258.16 259.29 260.76 277.51 262.06 282.39" stroke="#263238" stroke-linecap="round" stroke-linejoin="round"/>
<path d="M222.74 284.521C222.6 285.781 222.48 286.931 222.36 287.921" stroke="#263238" stroke-linecap="round" stroke-linejoin="round"/>
<path d="M225.29 259.29C225.29 259.29 224.21 270.42 223.29 279.62" stroke="#263238" stroke-linecap="round" stroke-linejoin="round"/>
<path d="M222.69 259.94L221.38 275.56" stroke="#263238" stroke-linecap="round" stroke-linejoin="round"/>
<path d="M245.49 126.5C245.49 126.5 257.62 127.71 254.79 133.98C251.96 140.25 249.13 141.46 248.52 141.46C247.91 141.46 243.06 133.98 243.06 133.98L245.49 126.5Z" fill="#263238" stroke="#263238" stroke-linecap="round" stroke-linejoin="round"/>
<path d="M244.07 132.36C244.07 132.36 248.72 134.99 250.14 139.84C251.56 144.69 255.19 146.11 256.21 145.91C257.23 145.71 258.63 148.74 257.42 150.76L256.21 152.76C256.21 152.76 257.21 166.51 256 168.33C254.79 170.15 247.31 169.14 247.31 169.14C247.31 169.14 245.69 175.61 247.11 179.66C248.53 183.71 252.77 185.72 254.39 185.72C256.01 185.72 259.44 183.72 264.09 186.13C268.74 188.54 284.31 200.28 284.31 200.28L276 223L267.1 218.35L273.37 256.97L212.71 258.39C212.71 258.39 213.32 230.89 211.71 225.83C210.585 222.477 209.163 219.231 207.46 216.13L199.78 222.19L189.06 203.59C189.06 203.59 204.83 187.82 211.06 186.4C217.29 184.98 224.81 186.81 227.24 183.77C229.67 180.73 227.64 166.38 227.64 166.38C227.64 166.38 221.78 164.38 218.34 154.05C214.9 143.72 226.63 133.05 226.63 133.05C226.63 133.05 231.94 127.51 244.07 132.36Z" fill="white" stroke="#263238" stroke-linecap="round" stroke-linejoin="round"/>
<path d="M247.31 169.16L241.84 168.24L246.23 173.29L247.31 169.16Z" fill="#263238" stroke="#263238" stroke-linecap="round" stroke-linejoin="round"/>
<path d="M244.74 143.311C244.74 143.311 244.74 139.471 248.18 139.471" stroke="#263238" stroke-width="2" stroke-linecap="round" stroke-linejoin="round"/>
<path d="M253.78 157.23L246.7 153.79C246.7 153.79 246.1 161.07 248.7 160.87C251.3 160.67 253.78 157.23 253.78 157.23Z" fill="#263238" stroke="#263238" stroke-linecap="round" stroke-linejoin="round"/>
<path d="M246.85 147.06C246.85 147.06 249.13 144.59 251.03 146.68" stroke="#263238" stroke-linecap="round" stroke-linejoin="round"/>
<path d="M246.65 156.101L253.01 158.171C253.284 157.872 253.541 157.558 253.78 157.231L246.7 153.801C246.7 153.801 246.62 154.831 246.65 156.101Z" fill="white" stroke="#263238" stroke-linecap="round" stroke-linejoin="round"/>
<path d="M207.07 141.061C207.07 141.061 202.62 131.961 196.35 132.971C190.08 133.981 185.23 140.851 187.25 150.561C187.25 150.561 188.25 153.191 189.07 155.411C189.07 155.411 181.19 152.991 176.94 158.241C172.69 163.491 175.94 168.961 180.78 171.591C185.62 174.221 188.47 174.021 188.47 174.021C188.47 174.021 177.75 177.251 181.59 181.301C185.43 185.351 197.16 182.711 194.73 179.301C192.3 175.891 190.49 176.301 190.49 176.301C190.49 176.301 200.19 172.661 199.18 170.031C198.17 167.401 193.32 165.381 193.32 165.381C193.32 165.381 202.62 168.621 207.68 165.581C212.74 162.541 208.28 149.581 208.28 149.581L207.07 141.061Z" fill="#263238" stroke="#263238" stroke-linecap="round" stroke-linejoin="round"/>
<path d="M247.71 122.051C247.71 122.051 249.33 127.711 246.5 132.561C243.67 137.411 237.6 145.711 236.79 155.011C235.98 164.311 238.61 175.841 240.23 179.681C241.85 183.521 238.23 184.331 235.58 184.131C232.93 183.931 231.94 182.311 231.94 178.671C231.94 175.031 231.13 168.561 231.13 168.561C231.13 168.561 220.82 167.561 215.97 164.711C211.12 161.861 204.04 152.181 207.07 141.061C210.1 129.941 218.19 126.701 223.07 124.681C227.95 122.661 234.6 122.861 239.25 121.851C243.9 120.841 247.51 119.621 247.71 122.051Z" fill="#263238" stroke="#263238" stroke-linecap="round" stroke-linejoin="round"/>
<path d="M233 150.36L231.18 157.64C231.18 157.64 227.34 155.82 226.73 152.58C226.12 149.34 230.73 147.73 234.01 150.58" fill="white"/>
<path d="M233 150.36L231.18 157.64C231.18 157.64 227.34 155.82 226.73 152.58C226.12 149.34 230.73 147.73 234.01 150.58" stroke="#263238" stroke-linecap="round" stroke-linejoin="round"/>
<path d="M292 161.88L289.37 162.09" stroke="#263238" stroke-linecap="round" stroke-linejoin="round"/>
<path d="M273.08 156.04L340.48 165.47L331.32 115.61L271 144.66L273.08 156.04Z" fill="#92E3A9" stroke="#263238" stroke-linecap="round" stroke-linejoin="round"/>
<path d="M270.996 144.662L260.982 146.493L263.054 157.825L273.068 155.995L270.996 144.662Z" fill="#92E3A9" stroke="#263238" stroke-linecap="round" stroke-linejoin="round"/>
<path d="M284.31 200.3C284.31 200.3 268.74 188.57 264.09 186.15C259.44 183.73 256.09 185.69 254.46 185.74C252.292 188.862 249.373 191.388 245.972 193.085C242.572 194.781 238.798 195.595 235 195.45C221.7 195.28 218 187.88 217.2 185.72C215.165 185.739 213.136 185.95 211.14 186.35C204.87 187.77 189.14 203.54 189.14 203.54L199.86 222.14L207.54 216.08C209.243 219.18 210.665 222.426 211.79 225.78C213.41 230.84 212.79 258.34 212.79 258.34L273.45 256.92L267.18 218.3L276 223L284.31 200.3Z" fill="#263238" stroke="#263238" stroke-linecap="round" stroke-linejoin="round"/>
<path d="M245.931 238.813C255.956 236.427 262.149 226.365 259.762 216.339C257.376 206.314 247.314 200.121 237.288 202.508C227.263 204.894 221.07 214.956 223.457 224.982C225.844 235.007 235.906 241.2 245.931 238.813Z" stroke="white" stroke-miterlimit="10"/>
<path d="M253.01 212.2H230.88L241.79 222.71L253.01 212.2Z" fill="#92E3A9"/>
<path d="M246.22 220.39L253.92 227.19V213.17L246.22 220.39Z" fill="#92E3A9"/>
<path d="M237.44 220.371L229.64 212.851V226.871L237.44 220.371Z" fill="#92E3A9"/>
<path d="M245.24 221.301L241.78 224.551L238.41 221.301L230.29 228.071H252.9L245.24 221.301Z" fill="#92E3A9"/>
<path d="M30.3101 463.81H470.63" stroke="#263238" stroke-miterlimit="10"/>
</svg>
