<svg width="60" height="60" viewBox="0 0 60 60" fill="none" xmlns="http://www.w3.org/2000/svg">
<path d="M52.4981 7.50327L59.1974 8.84258C59.5572 8.91454 59.853 9.1784 59.9569 9.53422C60.0094 9.70706 60.0141 9.8909 59.9705 10.0662C59.9268 10.2415 59.8365 10.4017 59.7091 10.5297L54.2209 16.0229C53.5633 16.6769 52.674 17.0447 51.7466 17.0463H47.1937L35.7616 28.4844C35.9797 29.3081 36.0198 30.1687 35.8793 31.0091C35.7387 31.8495 35.4207 32.6503 34.9465 33.3581C34.4722 34.0659 33.8526 34.6645 33.1289 35.1141C32.4052 35.5636 31.594 35.8537 30.7494 35.9651C29.9048 36.0765 29.0462 36.0066 28.2307 35.7601C27.4152 35.5135 26.6617 35.096 26.0202 34.5354C25.3787 33.9747 24.864 33.2837 24.5104 32.5085C24.1569 31.7333 23.9726 30.8916 23.9697 30.0396C23.9695 29.1194 24.1811 28.2114 24.588 27.3861C24.9949 26.5608 25.5863 25.8402 26.3163 25.2801C27.0463 24.72 27.8954 24.3355 28.7979 24.1562C29.7003 23.977 30.6319 24.0079 31.5205 24.2466L42.9566 12.8045V8.25888C42.9566 7.33136 43.3244 6.43982 43.9799 5.78416L49.4722 0.291013C49.6002 0.163594 49.7603 0.0732593 49.9356 0.0296134C50.1108 -0.0140325 50.2947 -0.00935755 50.4675 0.0431412C50.8232 0.147087 51.087 0.442934 51.159 0.802747L52.4981 7.50327Z" fill="#FFC727"/>
<path d="M5.98296 30.0383C5.98707 33.4684 6.72662 36.8577 8.15174 39.9776C9.57685 43.0975 11.6544 45.8754 14.2442 48.124C16.834 50.3725 19.8758 52.0394 23.1645 53.0122C26.4531 53.985 29.9121 54.2411 33.3082 53.7632C36.7042 53.2852 39.9583 52.0844 42.8508 50.2417C45.7434 48.399 48.2072 45.9573 50.076 43.0812C51.9449 40.2052 53.1753 36.9618 53.6843 33.5697C54.1933 30.1776 53.969 26.7158 53.0265 23.4178C52.8942 23.0325 52.8417 22.6242 52.8721 22.218C52.9026 21.8117 53.0154 21.4159 53.2037 21.0546C53.392 20.6934 53.6518 20.3742 53.9673 20.1166C54.2829 19.859 54.6475 19.6682 55.0391 19.5561C55.4307 19.4439 55.841 19.4126 56.2451 19.4641C56.6492 19.5156 57.0385 19.6488 57.3895 19.8556C57.7404 20.0624 58.0456 20.3385 58.2865 20.667C58.5274 20.9955 58.6989 21.3697 58.7906 21.7666C60.6154 28.1534 60.2688 34.9654 57.805 41.1339C55.3413 47.3024 50.8999 52.4784 45.1776 55.8498C39.4553 59.2212 32.7759 60.5972 26.1872 59.7621C19.5986 58.927 13.4736 55.9279 8.77304 51.2353C4.07764 46.5352 1.07584 40.4085 0.238935 33.8172C-0.597974 27.226 0.777399 20.5433 4.14912 14.8185C7.52083 9.09372 12.698 4.65095 18.8677 2.18774C25.0374 -0.275469 31.8503 -0.619632 38.2367 1.20929C38.9972 1.43162 39.6387 1.94598 40.0211 2.63995C40.4036 3.33393 40.4958 4.1511 40.2776 4.91287C40.0595 5.67465 39.5487 6.31908 38.857 6.70535C38.1652 7.09162 37.3487 7.18831 36.5859 6.9743C33.0146 5.94862 29.2539 5.76687 25.6004 6.44337C21.947 7.11988 18.5006 8.63613 15.5332 10.8726C12.5657 13.109 10.1584 16.0044 8.50106 19.3304C6.84372 22.6564 5.98169 26.3221 5.98296 30.0383Z" fill="#004745"/>
<path d="M17.9739 30.0385C17.9741 32.2237 18.5708 34.3674 19.6997 36.2383C20.8286 38.1092 22.4468 39.6364 24.3797 40.6551C26.3127 41.6738 28.487 42.1453 30.6682 42.0188C32.8494 41.8923 34.9546 41.1726 36.7569 39.9373C38.5588 38.6989 39.988 36.9914 40.8898 34.9993C41.7916 33.0073 42.1317 30.8066 41.8734 28.6352C41.8035 28.1083 41.8753 27.5722 42.0814 27.0823C42.2875 26.5924 42.6205 26.1662 43.046 25.8478C43.4715 25.5293 43.9741 25.33 44.5022 25.2704C45.0303 25.2109 45.5648 25.2931 46.0505 25.5088C46.5361 25.7217 46.9566 26.0595 47.2691 26.488C47.5816 26.9164 47.7749 27.42 47.8293 27.9475C48.2636 31.658 47.5323 35.4117 45.7368 38.6876C43.9413 41.9635 41.1707 44.5991 37.8096 46.2286C34.4484 47.8581 30.6635 48.4006 26.98 47.781C23.2966 47.1613 19.8974 45.4101 17.2542 42.7705C14.611 40.1309 12.855 36.7338 12.2298 33.0506C11.6047 29.3675 12.1414 25.5811 13.7655 22.2169C15.3896 18.8527 18.0205 16.0777 21.2931 14.2769C24.5657 12.4761 28.3177 11.739 32.0282 12.1677C32.4255 12.2046 32.8114 12.3204 33.1634 12.5084C33.5154 12.6964 33.8263 12.9528 34.0779 13.2625C34.3295 13.5722 34.5168 13.9291 34.6287 14.3121C34.7407 14.6952 34.775 15.0967 34.7298 15.4932C34.6846 15.8898 34.5607 16.2732 34.3653 16.6212C34.17 16.9692 33.9072 17.2747 33.5922 17.5198C33.2773 17.7649 32.9167 17.9446 32.5314 18.0485C32.1462 18.1523 31.744 18.1782 31.3486 18.1246C29.6684 17.9295 27.9659 18.0921 26.353 18.6018C24.7401 19.1114 23.2532 19.9566 21.9901 21.0818C20.7269 22.207 19.716 23.5867 19.0239 25.1304C18.3317 26.674 17.9738 28.3467 17.9739 30.0385Z" fill="#004745"/>
</svg>
