<svg width="60" height="60" viewBox="0 0 60 60" fill="none" xmlns="http://www.w3.org/2000/svg">
<path d="M30 5C31.3261 5 32.5979 5.52678 33.5355 6.46447C34.4732 7.40215 35 8.67392 35 10C35 11.85 34 13.475 32.5 14.325V17.5H35C39.6413 17.5 44.0925 19.3437 47.3744 22.6256C50.6563 25.9075 52.5 30.3587 52.5 35H55C55.663 35 56.2989 35.2634 56.7678 35.7322C57.2366 36.2011 57.5 36.837 57.5 37.5V45C57.5 45.663 57.2366 46.2989 56.7678 46.7678C56.2989 47.2366 55.663 47.5 55 47.5H52.5V50C52.5 51.3261 51.9732 52.5979 51.0355 53.5355C50.0979 54.4732 48.8261 55 47.5 55H12.5C11.1739 55 9.90215 54.4732 8.96447 53.5355C8.02678 52.5979 7.5 51.3261 7.5 50V47.5H5C4.33696 47.5 3.70107 47.2366 3.23223 46.7678C2.76339 46.2989 2.5 45.663 2.5 45V37.5C2.5 36.837 2.76339 36.2011 3.23223 35.7322C3.70107 35.2634 4.33696 35 5 35H7.5C7.5 30.3587 9.34374 25.9075 12.6256 22.6256C15.9075 19.3437 20.3587 17.5 25 17.5H27.5V14.325C26 13.475 25 11.85 25 10C25 8.67392 25.5268 7.40215 26.4645 6.46447C27.4021 5.52678 28.6739 5 30 5ZM18.75 32.5C17.0924 32.5 15.5027 33.1585 14.3306 34.3306C13.1585 35.5027 12.5 37.0924 12.5 38.75C12.5 40.4076 13.1585 41.9973 14.3306 43.1694C15.5027 44.3415 17.0924 45 18.75 45C20.4076 45 21.9973 44.3415 23.1694 43.1694C24.3415 41.9973 25 40.4076 25 38.75C25 37.0924 24.3415 35.5027 23.1694 34.3306C21.9973 33.1585 20.4076 32.5 18.75 32.5ZM41.25 32.5C39.5924 32.5 38.0027 33.1585 36.8306 34.3306C35.6585 35.5027 35 37.0924 35 38.75C35 40.4076 35.6585 41.9973 36.8306 43.1694C38.0027 44.3415 39.5924 45 41.25 45C42.9076 45 44.4973 44.3415 45.6694 43.1694C46.8415 41.9973 47.5 40.4076 47.5 38.75C47.5 37.0924 46.8415 35.5027 45.6694 34.3306C44.4973 33.1585 42.9076 32.5 41.25 32.5Z" fill="#004745"/>
<circle cx="18.5" cy="38.5" r="6.5" fill="#FFC727"/>
<circle cx="41.5" cy="38.5" r="6.5" fill="#FFC727"/>
</svg>
