<svg width="60" height="60" viewBox="0 0 60 60" fill="none" xmlns="http://www.w3.org/2000/svg">
<path d="M60 52C60 54.1217 59.1571 56.1566 57.6569 57.6569C56.1566 59.1571 54.1217 60 52 60H8C5.87827 60 3.84344 59.1571 2.34315 57.6569C0.842855 56.1566 0 54.1217 0 52V8C0 5.87827 0.842855 3.84344 2.34315 2.34315C3.84344 0.842855 5.87827 0 8 0L52 0C54.1217 0 56.1566 0.842855 57.6569 2.34315C59.1571 3.84344 60 5.87827 60 8V52Z" fill="#FFC727"/>
<path d="M56 52C56 53.0609 55.5786 54.0783 54.8284 54.8284C54.0783 55.5786 53.0609 56 52 56H8C6.93913 56 5.92172 55.5786 5.17157 54.8284C4.42143 54.0783 4 53.0609 4 52V8C4 6.93913 4.42143 5.92172 5.17157 5.17157C5.92172 4.42143 6.93913 4 8 4H52C53.0609 4 54.0783 4.42143 54.8284 5.17157C55.5786 5.92172 56 6.93913 56 8V52Z" fill="#004745"/>
<path d="M15.0299 17.7958C14.8699 17.9878 14.6619 18.2758 14.6619 18.6118C14.6619 19.3478 15.2059 19.6678 15.9099 19.6678H21.2499C21.8579 19.6678 22.4019 19.3478 22.4019 18.6118C22.4019 17.8758 21.8599 17.5558 21.1539 17.5558H18.2279C19.5859 15.8458 22.0659 13.6398 22.0659 11.4158C22.0659 9.38584 20.4819 8.08984 18.5159 8.08984C16.5499 8.08984 14.7579 9.70384 14.7579 11.7198C14.7579 12.3418 15.1579 12.8858 15.9259 12.8858C17.4619 12.8858 16.5819 10.2958 18.4199 10.2958C19.0759 10.2958 19.5719 10.8718 19.5719 11.5278C19.5719 12.1038 19.2999 12.5998 19.0119 13.0158C17.7959 14.7738 16.3579 16.2138 15.0299 17.7958ZM12.4159 28.6618H10.0979V26.3418C10.0979 25.7658 9.72986 25.3838 9.13786 25.3838C8.54786 25.3838 8.17986 25.7678 8.17986 26.3418V28.6618H5.86186C5.26986 28.6618 4.90186 29.0458 4.90186 29.6198C4.90186 30.1958 5.26986 30.5798 5.86186 30.5798H8.17986V32.8978C8.17986 33.4738 8.54786 33.8558 9.13786 33.8558C9.72986 33.8558 10.0979 33.4738 10.0979 32.8978V30.5798H12.4159C13.0079 30.5798 13.3759 30.1958 13.3759 29.6198C13.3759 29.0458 13.0079 28.6618 12.4159 28.6618ZM21.1539 31.5558H18.2259C19.5859 29.8458 22.0639 27.6398 22.0639 25.4158C22.0639 23.3858 20.4799 22.0898 18.5139 22.0898C16.5479 22.0898 14.7559 23.7058 14.7559 25.7198C14.7559 26.3418 15.1559 26.8858 15.9219 26.8858C17.4579 26.8858 16.5779 24.2958 18.4179 24.2958C19.0739 24.2958 19.5699 24.8718 19.5699 25.5278C19.5699 26.1038 19.2979 26.5998 19.0099 27.0158C17.7939 28.7738 16.3559 30.2138 15.0279 31.7978C14.8679 31.9898 14.6599 32.2778 14.6599 32.6138C14.6599 33.3498 15.2039 33.6698 15.9079 33.6698H21.2479C21.8559 33.6698 22.3999 33.3498 22.3999 32.6138C22.3999 31.8758 21.8579 31.5558 21.1539 31.5558ZM22.8339 37.9398H6.16586C5.90064 37.9398 5.64629 37.8345 5.45875 37.6469C5.27121 37.4594 5.16586 37.2051 5.16586 36.9398C5.16586 36.6746 5.27121 36.4203 5.45875 36.2327C5.64629 36.0452 5.90064 35.9398 6.16586 35.9398H22.8319C23.0971 35.9396 23.3515 36.0447 23.5393 36.232C23.727 36.4194 23.8326 36.6736 23.8329 36.9388C23.8331 37.2041 23.728 37.4585 23.5407 37.6462C23.3533 37.834 23.0991 37.9396 22.8339 37.9398Z" fill="#FFC727"/>
</svg>
