<svg width="60" height="65" viewBox="0 0 60 65" fill="none" xmlns="http://www.w3.org/2000/svg">
<path d="M42.9806 11.3169C42.9806 10.0085 42.4639 8.75378 41.5443 7.82865C40.6246 6.90352 39.3773 6.38379 38.0767 6.38379C36.7762 6.38379 35.5288 6.90352 34.6092 7.82865C33.6895 8.75378 33.1729 10.0085 33.1729 11.3169V16.2499H38.0767C39.3773 16.2499 40.6246 15.7302 41.5443 14.8051C42.4639 13.8799 42.9806 12.6252 42.9806 11.3169ZM26.8267 11.3169C26.8267 10.3412 26.5391 9.38743 26.0003 8.57619C25.4614 7.76495 24.6956 7.13267 23.7995 6.7593C22.9035 6.38593 21.9175 6.28824 20.9662 6.47858C20.0149 6.66892 19.1412 7.13875 18.4553 7.82865C17.7695 8.51855 17.3025 9.39754 17.1133 10.3545C16.9241 11.3114 17.0212 12.3033 17.3923 13.2047C17.7635 14.1061 18.392 14.8765 19.1985 15.4186C20.0049 15.9606 20.953 16.2499 21.9229 16.2499H26.8267V11.3169Z" fill="#FFC727"/>
<path d="M26.8269 16.2497H33.1731V32.4998H56.8269C57.6685 32.4998 58.4756 32.1635 59.0706 31.5649C59.6657 30.9663 60 30.1544 60 29.3078V19.4417C60 18.5951 59.6657 17.7832 59.0706 17.1846C58.4756 16.586 57.6685 16.2497 56.8269 16.2497H48.199C49.3674 13.829 49.6395 11.0686 48.9665 8.46423C48.2935 5.85987 46.7194 3.58225 44.527 2.04047C42.3346 0.498684 39.6676 -0.206224 37.005 0.0523593C34.3424 0.310943 31.8587 1.51607 30 3.45128C28.1381 1.52668 25.6565 0.330865 22.9988 0.0775712C20.341 -0.175723 17.6803 0.530011 15.4923 2.06864C13.3042 3.60726 11.7314 5.87849 11.0549 8.47639C10.3784 11.0743 10.6423 13.8295 11.7995 16.2497H3.17308C2.33152 16.2497 1.52444 16.586 0.929372 17.1846C0.334305 17.7832 0 18.5951 0 19.4417V29.3078C0 30.1544 0.334305 30.9663 0.929372 31.5649C1.22402 31.8613 1.57382 32.0964 1.95879 32.2568C2.34377 32.4172 2.75638 32.4998 3.17308 32.4998H26.8269V16.2497ZM33.1731 11.3166C33.1731 10.341 33.4607 9.38719 33.9995 8.57596C34.5384 7.76472 35.3042 7.13243 36.2003 6.75906C37.0964 6.38569 38.0824 6.288 39.0336 6.47834C39.9849 6.66868 40.8586 7.13851 41.5445 7.82841C42.2303 8.51832 42.6973 9.39731 42.8865 10.3542C43.0758 11.3111 42.9786 12.303 42.6075 13.2044C42.2363 14.1058 41.6078 14.8763 40.8014 15.4183C39.9949 15.9604 39.0468 16.2497 38.0769 16.2497H33.1731V11.3166ZM17.0192 11.3166C17.0192 10.0083 17.5359 8.75354 18.4555 7.82841C19.3752 6.90329 20.6225 6.38355 21.9231 6.38355C23.2237 6.38355 24.471 6.90329 25.3906 7.82841C26.3103 8.75354 26.8269 10.0083 26.8269 11.3166V16.2497H21.9231C20.6225 16.2497 19.3752 15.73 18.4555 14.8048C17.5359 13.8797 17.0192 12.625 17.0192 11.3166ZM33.1731 65H52.2115C53.0531 65 53.8602 64.6637 54.4552 64.0651C55.0503 63.4665 55.3846 62.6546 55.3846 61.808V37.1427H33.1731V65ZM4.61538 61.808C4.61538 62.6546 4.94969 63.4665 5.54476 64.0651C6.13982 64.6637 6.94691 65 7.78846 65H26.8269V37.1427H4.61538V61.808Z" fill="#004745"/>
</svg>
