<svg width="60" height="67" viewBox="0 0 60 67" fill="none" xmlns="http://www.w3.org/2000/svg">
<path fill-rule="evenodd" clip-rule="evenodd" d="M12.3646 21.2564C13.8521 19.744 15.8389 18.8975 18.5 18.8975C20.8045 18.8975 22.7417 19.8043 24.0764 21.3536C25.3821 22.8693 26 24.8649 26 26.9146V31.275C27.0562 31.0767 28.3934 30.9231 30 30.9231C31.6066 30.9231 32.9437 31.0767 34 31.275V26.9146C34 24.8649 34.6179 22.8693 35.9236 21.3536C37.2582 19.8043 39.1955 18.8975 41.5 18.8975C44.1611 18.8975 46.1479 19.744 47.6354 21.2564C49.0194 22.6635 49.8286 24.5178 50.4844 26.1762L50.5639 26.3857L59.0897 49.1736C59.0897 49.1736 59.4135 50.089 59.4541 50.2249C59.8172 51.4407 60.0011 52.7032 60 53.9722C60 61.1673 54.1797 67 47 67C39.8202 67 34 61.1673 34 53.9722V46.3985L33.995 46.3972C33.1361 46.1838 31.7977 45.9552 30 45.9552C28.2022 45.9552 26.8639 46.1838 26.005 46.3972L26 46.3985V53.9722C26 61.1673 20.1797 67 13 67C5.82025 67 0 61.1673 0 53.9722C0 52.6696 0.19075 51.4117 0.545875 50.2248C0.564792 50.1379 0.589875 50.0516 0.621125 49.9657C0.711806 49.6996 0.808245 49.4354 0.910375 49.1735L9.51562 26.1762C10.1714 24.5178 10.9807 22.6635 12.3646 21.2564ZM38 53.9603C38.0064 48.9846 42.0334 44.953 47 44.953C50.7965 44.953 54.044 47.3088 55.3662 50.6411L55.536 51.1059C55.8444 52.0299 56.0011 52.9979 56 53.9722C56 58.9534 51.9705 62.9915 47 62.9915C42.0311 62.9915 38.0027 58.9561 38 53.9773V53.9722M13 44.953C9.20362 44.953 5.95625 47.3087 4.63375 50.6409L4.464 51.1061C4.15567 52.0301 3.99897 52.998 4 53.9722C4 58.9534 8.0295 62.9915 13 62.9915C17.9705 62.9915 22 58.9534 22 53.9722C22 48.9911 17.9705 44.953 13 44.953Z" fill="#004745"/>
<rect width="26.8859" height="26.8859" rx="8" transform="matrix(0.706352 0.707861 -0.706352 0.707861 30.4194 0)" fill="#FFC727"/>
</svg>
